<?xml version="1.0" ?><!DOCTYPE svg  PUBLIC '-//W3C//DTD SVG 1.1//EN'  'http://www.w3.org/Graphics/SVG/1.1/DTD/svg11.dtd'><svg enable-background="new 0 0 64 64" height="64px" version="1.1" viewBox="0 0 64 64" width="64px" xml:space="preserve" xmlns="http://www.w3.org/2000/svg" xmlns:xlink="http://www.w3.org/1999/xlink"><g id="Layer_1"/><g id="Layer_2"/><g id="Layer_3"/><g id="Layer_4"/><g id="Layer_5"/><g id="Layer_6"/><g id="Layer_7"/><g id="Layer_8"/><g id="Layer_9"/><g id="Layer_10"/><g id="Layer_11"/><g id="Layer_12"/><g id="Layer_13"><g><path d="M41.729,7.338c0,8.553-3.956,20.424-8.975,21.523c0.199-2.037,0.36-4.506,0.36-7.168    C33.114,14.691,32,9.02,32,9.02s-1.117,5.672-1.117,12.674c0,2.662,0.161,5.127,0.361,7.164    c-5.021-1.102-8.973-12.969-8.973-21.52C22.271-1.638,32,2.867,32,2.867S41.729-1.638,41.729,7.338z" fill="#FFCAE5"/><path d="M21.65,28.4c-6.659-2.158-12.399-2.852-12.399-2.852s5.052,2.813,11.71,4.979    c2.515,0.814,4.895,1.422,6.887,1.861c-2.521,4.492-15.105,4.598-23.273,1.943c-8.537-2.775-1.242-10.633-1.242-10.633    s-1.282-10.646,7.254-7.871c8.09,2.627,18.098,9.992,17.704,15.104C26.428,30.121,24.153,29.217,21.65,28.4z" fill="#FFCAE5"/><path d="M24.778,59.506c-5.274,7.256-10.496-2.104-10.496-2.104s-10.519-2.074-5.245-9.336    c5.009-6.891,15.127-14.143,19.857-12.156c-1.34,1.51-2.881,3.373-4.406,5.473c-4.052,5.572-6.472,10.742-6.544,10.904    c0.153-0.145,4.313-4.039,8.347-9.594c1.532-2.107,2.831-4.156,3.856-5.898C33.599,40.615,29.814,52.576,24.778,59.506z" fill="#FFCAE5"/><path d="M49.718,57.402c0,0-5.222,9.359-10.496,2.104c-5.037-6.93-8.821-18.891-5.369-22.711    c1.025,1.742,2.324,3.791,3.855,5.898c4.035,5.555,8.194,9.449,8.348,9.594c-0.072-0.162-2.492-5.332-6.545-10.904    c-1.524-2.1-3.066-3.963-4.404-5.473c4.729-1.986,14.847,5.266,19.856,12.156C60.236,55.328,49.718,57.402,49.718,57.402z" fill="#FFCAE5"/><path d="M59.426,34.332c-8.169,2.654-20.753,2.549-23.274-1.943c1.993-0.439,4.375-1.047,6.887-1.861    c6.659-2.166,11.711-4.979,11.711-4.979s-5.741,0.693-12.4,2.852c-2.498,0.816-4.776,1.719-6.639,2.531    c-0.394-5.111,9.61-12.477,17.699-15.104c8.537-2.775,7.259,7.871,7.259,7.871S67.962,31.557,59.426,34.332z" fill="#FFCAE5"/></g></g><g id="Layer_14"/><g id="Layer_15"/><g id="Layer_16"/><g id="Layer_17"/><g id="Layer_18"/><g id="Layer_19"/><g id="Layer_20"/></svg>